<svg width="24" height="24" viewBox="0 0 24 24" fill="none" xmlns="http://www.w3.org/2000/svg">
<path fill-rule="evenodd" clip-rule="evenodd" d="M7 11.9255C7 8.99967 9 6.92554 12 6.92554C15.0017 6.92554 17 8.90735 17 12C17 15.0003 15.0017 16.9255 12.002 16.9255C9.00234 16.9255 7 15.0003 7 11.9255ZM9.00234 12C9.00234 13.6548 10.3516 15.0003 12.002 15.0003C13.6524 15.0003 15.0017 13.6548 15.0017 12C15.0017 10.3452 13.6564 8.99967 12.002 8.99967C10.3476 8.99967 9.00234 10.3452 9.00234 12ZM17.8047 8.27268C18.399 8.27268 18.8809 7.79471 18.8809 7.19625C18.8809 6.60181 18.399 6.11983 17.8047 6.11983C17.2104 6.11983 16.7285 6.60181 16.7285 7.19625C16.7285 7.7907 17.2064 8.27268 17.8047 8.27268ZM19.4831 4.51724C20.5392 5.56956 20.8685 6.84681 20.9368 8.28874C21.0211 9.77485 21.0211 14.2251 20.9368 15.7113C20.8645 17.1532 20.5352 18.4304 19.4831 19.4828C18.431 20.5391 17.154 20.8685 15.7124 20.9367C14.2267 21.0211 9.77334 21.0211 8.28756 20.9367C6.84596 20.8644 5.57301 20.5351 4.5169 19.4828C3.46079 18.4304 3.13151 17.1532 3.06325 15.7113C2.97892 14.2251 2.97892 9.77083 3.06325 8.28473C3.13553 6.8428 3.46079 5.56555 4.5169 4.51322C5.57301 3.46089 6.84997 3.13154 8.28756 3.06326C9.77334 2.97891 14.2267 2.97891 15.7124 3.06326C17.154 3.13556 18.431 3.46491 19.4831 4.51724Z" fill="#363636"/>
</svg>
