<svg width="24" height="24" viewBox="0 0 24 24" fill="none" xmlns="http://www.w3.org/2000/svg">
<path d="M7.02901 21H3.29726V8.31495H7.02901V21ZM5.16112 6.5846C3.96809 6.5846 3 5.54129 3 4.2817C3 3.0221 3.96809 2 5.16112 2C6.35416 2 7.32225 3.0221 7.32225 4.2817C7.32225 5.54129 6.35416 6.5846 5.16112 6.5846ZM20.996 21H17.2723V14.825C17.2723 13.3533 17.2441 11.4661 15.3321 11.4661C13.3919 11.4661 13.0946 13.065 13.0946 14.719V21H9.36688V8.31495H12.946V10.0453H12.9982C13.4963 9.04866 14.7135 7.99687 16.5291 7.99687C20.3051 7.99687 21 10.6221 21 14.0319V21H20.996Z" fill="#363636"/>
</svg>
