<svg width="16" height="16" viewBox="0 0 16 16" fill="none" xmlns="http://www.w3.org/2000/svg">
<path fill-rule="evenodd" clip-rule="evenodd" d="M11.1464 2.64645C11.1944 2.59851 11.2496 2.56234 11.3086 2.53794L11.8535 2.64642L11.854 2.64691L14.3535 5.14598C14.5487 5.34123 14.5488 5.65781 14.3535 5.85309C14.1583 6.04837 13.8417 6.04839 13.6464 5.85314L12 4.20698V9C12 9.27614 11.7761 9.5 11.5 9.5C11.2239 9.5 11 9.27614 11 9V4.20711L9.35355 5.85355C9.15829 6.04882 8.84171 6.04882 8.64645 5.85355C8.45118 5.65829 8.45118 5.34171 8.64645 5.14645L11.1464 2.64645ZM11.3086 2.53794L11.8514 2.64432C11.7611 2.55509 11.637 2.5 11.5 2.5C11.4322 2.5 11.3676 2.51349 11.3086 2.53794ZM3 7.5C2.72386 7.5 2.5 7.72386 2.5 8C2.5 8.27614 2.72386 8.5 3 8.5H7.49994C7.77608 8.5 7.99994 8.27614 7.99994 8C7.99994 7.72386 7.77608 7.5 7.49994 7.5H3ZM2.5 4C2.5 3.72386 2.72386 3.5 3 3.5H6.49994C6.77608 3.5 6.99994 3.72386 6.99994 4C6.99994 4.27614 6.77608 4.5 6.49994 4.5H3C2.72386 4.5 2.5 4.27614 2.5 4ZM3 11.5C2.72386 11.5 2.5 11.7239 2.5 12C2.5 12.2761 2.72386 12.5 3 12.5H11.4999C11.7761 12.5 11.9999 12.2761 11.9999 12C11.9999 11.7239 11.7761 11.5 11.4999 11.5H3Z" fill="#A7A7A7"/>
</svg>
