<svg width="24" height="24" viewBox="0 0 24 24" fill="none" xmlns="http://www.w3.org/2000/svg">
<path d="M22.4986 7.89512C22.6497 7.3795 22.4986 7 21.7716 7H19.3661C18.7535 7 18.4717 7.32587 18.3206 7.68887C18.3206 7.68887 17.0954 10.7042 15.3637 12.6595C14.8042 13.2246 14.5469 13.4061 14.2406 13.4061C14.0895 13.4061 13.8567 13.2246 13.8567 12.709V7.89512C13.8567 7.27637 13.6852 7 13.1787 7H9.39687C9.01297 7 8.78426 7.28875 8.78426 7.55687C8.78426 8.14262 9.65009 8.27875 9.73993 9.92875V13.5092C9.73993 14.293 9.60108 14.4374 9.29477 14.4374C8.47795 14.4374 6.49309 11.4096 5.31687 7.94463C5.08 7.27225 4.84721 7 4.23051 7H1.82498C1.13886 7 1 7.32587 1 7.68887C1 8.33237 1.81682 11.5293 4.80228 15.7533C6.79123 18.6366 9.59291 20.2 12.1414 20.2C13.6729 20.2 13.8608 19.8535 13.8608 19.2554C13.8608 16.4999 13.7219 16.24 14.4897 16.24C14.845 16.24 15.4577 16.4215 16.8871 17.8116C18.5207 19.4616 18.7903 20.2 19.7051 20.2H22.1106C22.7967 20.2 23.1439 19.8535 22.9438 19.1687C22.4864 17.7291 19.3947 14.7674 19.2558 14.5694C18.9005 14.1074 19.0026 13.9011 19.2558 13.4886C19.2599 13.4845 22.1964 9.31 22.4986 7.89512Z" fill="#363636"/>
</svg>
